<svg width="56" height="28" viewBox="0 0 56 28" fill="none" xmlns="http://www.w3.org/2000/svg">
<g clip-path="url(#clip0_137_989)">
<path d="M0 14C0 6.26801 6.26801 0 14 0H42C49.732 0 56 6.26801 56 14C56 21.732 49.732 28 42 28H14C6.26801 28 0 21.732 0 14Z" fill="url(#paint0_linear_137_989)"/>
<path d="M39.9132 18.2499C39.5954 16.2415 37.8321 14.7 35.7103 14.7C34.912 14.7 34.145 14.9181 33.4797 15.3248C32.4676 13.6452 30.6454 12.6 28.6212 12.6C25.494 12.6 22.9499 15.1122 22.9499 18.2C22.9499 18.2191 22.9499 18.239 22.9506 18.2581C20.9408 18.5924 19.358 20.3225 19.358 22.4C19.358 24.716 21.3133 26.6 23.6588 26.6H39.2548C41.6003 26.6 43.5556 24.716 43.5556 22.4C43.5556 20.3048 41.9472 18.5637 39.9132 18.2499Z" fill="url(#paint1_linear_137_989)" fill-opacity="0.2"/>
<path d="M41.6598 18.6425C41.7959 17.7387 42.5516 17.045 43.461 17.045C43.8031 17.045 44.1318 17.1431 44.417 17.3262C44.8507 16.5703 45.6317 16.1 46.4992 16.1C47.8394 16.1 48.9298 17.2305 48.9298 18.62C48.9298 18.6286 48.9298 18.6375 48.9295 18.6462C49.7908 18.7966 50.4691 19.5751 50.4691 20.51C50.4691 21.5522 49.6312 22.4 48.6259 22.4H41.9419C40.9367 22.4 40.0987 21.5522 40.0987 20.51C40.0987 19.5672 40.7881 18.7837 41.6598 18.6425Z" fill="url(#paint2_linear_137_989)" fill-opacity="0.2"/>
<path d="M32.8019 14.312L32.1482 20.3L31.4943 14.312L25.5803 13.6501L31.4943 12.988L32.1482 7L32.8019 12.988L38.7161 13.6501L32.8019 14.312Z" fill="url(#paint3_linear_137_989)"/>
<path d="M42.6692 21.0309C43.5 21.8617 45.5 22.05 45.5 22.05C45.5 22.05 43.4821 22.5777 42.6692 23.5221C42.01 24.2877 41.65 25.9 41.65 25.9C41.65 25.9 41.3194 24.2862 40.6309 23.5221C39.823 22.6254 37.8 22.05 37.8 22.05C37.8 22.05 39.8122 21.8148 40.6309 21.0309C41.491 20.2074 41.65 18.2 41.65 18.2C41.65 18.2 41.8383 20.2 42.6692 21.0309Z" fill="url(#paint4_linear_137_989)"/>
<path d="M47.1985 5.30147C47.7272 5.83019 49 5.95 49 5.95C49 5.95 47.7158 6.28582 47.1985 6.88677C46.779 7.37402 46.55 8.4 46.55 8.4C46.55 8.4 46.3396 7.37302 45.9014 6.88677C45.3873 6.31614 44.1 5.95 44.1 5.95C44.1 5.95 45.3804 5.8003 45.9014 5.30147C46.4487 4.77746 46.55 3.5 46.55 3.5C46.55 3.5 46.6698 4.77275 47.1985 5.30147Z" fill="url(#paint5_linear_137_989)"/>
<circle cx="47.25" cy="14.35" r="0.35" fill="url(#paint6_linear_137_989)"/>
<circle cx="56.35" cy="13.65" r="1.05" fill="url(#paint7_linear_137_989)"/>
<circle cx="36.05" cy="5.25" r="1.05" fill="url(#paint8_linear_137_989)"/>
</g>
<defs>
<linearGradient id="paint0_linear_137_989" x1="56" y1="28" x2="-0.270716" y2="0.555053" gradientUnits="userSpaceOnUse">
<stop stop-color="#212328"/>
<stop offset="1" stop-color="#6E6F70"/>
</linearGradient>
<linearGradient id="paint1_linear_137_989" x1="24.0326" y1="14.3173" x2="43.672" y2="26.6991" gradientUnits="userSpaceOnUse">
<stop stop-color="white"/>
<stop offset="1" stop-color="white" stop-opacity="0"/>
</linearGradient>
<linearGradient id="paint2_linear_137_989" x1="48.4657" y1="16.8728" x2="39.8202" y2="22.0639" gradientUnits="userSpaceOnUse">
<stop stop-color="white"/>
<stop offset="1" stop-color="white" stop-opacity="0"/>
</linearGradient>
<linearGradient id="paint3_linear_137_989" x1="34.9136" y1="5.25" x2="28.5108" y2="12.7695" gradientUnits="userSpaceOnUse">
<stop stop-color="#AA478E"/>
<stop offset="1" stop-color="white" stop-opacity="0"/>
</linearGradient>
<linearGradient id="paint4_linear_137_989" x1="48.0667" y1="14.35" x2="46.2907" y2="24.1724" gradientUnits="userSpaceOnUse">
<stop stop-color="#AA478E"/>
<stop offset="1" stop-color="white" stop-opacity="0"/>
</linearGradient>
<linearGradient id="paint5_linear_137_989" x1="50.6333" y1="1.05" x2="49.5031" y2="7.30063" gradientUnits="userSpaceOnUse">
<stop stop-color="#AA478E"/>
<stop offset="1" stop-color="white" stop-opacity="0"/>
</linearGradient>
<linearGradient id="paint6_linear_137_989" x1="47.8334" y1="13.65" x2="47.6719" y2="14.5429" gradientUnits="userSpaceOnUse">
<stop stop-color="#AA478E"/>
<stop offset="1" stop-color="white" stop-opacity="0"/>
</linearGradient>
<linearGradient id="paint7_linear_137_989" x1="58.1" y1="11.55" x2="57.6157" y2="14.2288" gradientUnits="userSpaceOnUse">
<stop stop-color="#AA478E"/>
<stop offset="1" stop-color="white" stop-opacity="0"/>
</linearGradient>
<linearGradient id="paint8_linear_137_989" x1="37.8" y1="3.15" x2="37.3156" y2="5.82884" gradientUnits="userSpaceOnUse">
<stop stop-color="#AA478E"/>
<stop offset="1" stop-color="white" stop-opacity="0"/>
</linearGradient>
<clipPath id="clip0_137_989">
<path d="M0 14C0 6.26801 6.26801 0 14 0H42C49.732 0 56 6.26801 56 14C56 21.732 49.732 28 42 28H14C6.26801 28 0 21.732 0 14Z" fill="white"/>
</clipPath>
</defs>
</svg>
