<svg width="32" height="32" viewBox="0 0 32 32" fill="none" xmlns="http://www.w3.org/2000/svg">
<path d="M16 32C24.8366 32 32 24.8366 32 16C32 7.16344 24.8366 0 16 0C7.16344 0 0 7.16344 0 16C0 24.8366 7.16344 32 16 32Z" fill="#4D4D4D"/>
<path fill-rule="evenodd" clip-rule="evenodd" d="M10.9893 13.9406L16.0009 8.92903L21.0125 13.9458L23.9286 11.0297L16.0009 3.09677L8.07314 11.0245L10.9893 13.9406ZM3.09766 16L6.01378 13.0839L8.92991 16L6.01378 18.9161L3.09766 16ZM10.9893 18.0594L16.0009 23.071L21.0125 18.0542L23.9338 20.9703L16.0009 28.9032L8.07314 20.9755L8.06798 20.9703L10.9893 18.0594ZM23.0718 16L25.988 13.0839L28.9041 16L25.988 18.9161L23.0718 16Z" fill="#F3BA2F"/>
<path fill-rule="evenodd" clip-rule="evenodd" d="M19.2518 16L16.0002 12.7381L13.5951 15.1484L13.3163 15.4271L12.7434 16L12.7383 16.0052L12.7434 16.0103L15.9951 19.2619L19.2518 16.0052V16Z" fill="#F3BA2F"/>
</svg>
