<svg width="32" height="40" viewBox="0 0 32 40" fill="none" xmlns="http://www.w3.org/2000/svg">
<path d="M14.2415 0.382927C14.7843 0.130997 15.3768 0.000366211 15.9767 0.000366211C16.5766 0.000366211 17.1691 0.130997 17.7119 0.382927L27.7684 5.60242C28.0219 5.7143 28.2438 5.88592 28.4143 6.10217C28.5849 6.31843 28.6989 6.5727 28.7464 6.84261H28.7568V33.0405C28.732 33.3343 28.627 33.6161 28.4528 33.8558C28.2787 34.0956 28.042 34.2843 27.7678 34.4021L17.7119 39.6176C17.1691 39.8695 16.5766 40.0002 15.9767 40.0002C15.3768 40.0002 14.7843 39.8695 14.2415 39.6176L4.18504 34.3981C3.91392 34.2788 3.68077 34.0891 3.51052 33.8493C3.34027 33.6095 3.23932 33.3285 3.21847 33.0365C3.21847 32.9917 3.21847 32.9537 3.21847 32.923V6.83467C3.26049 6.56499 3.3712 6.31023 3.54025 6.09422C3.70929 5.87822 3.93114 5.70803 4.18504 5.59958L14.2415 0.382927ZM27.1729 21.4555L17.7119 26.3556C17.1693 26.6079 16.5767 26.7388 15.9767 26.7388C15.3767 26.7388 14.7841 26.6079 14.2415 26.3556L4.80066 21.4663V32.9888L14.2415 37.8571C14.7106 38.1366 15.2262 38.3317 15.7644 38.4336L15.9802 38.4466C16.5706 38.3895 17.1406 38.203 17.6486 37.9008L27.1792 32.9446V21.4555H27.1729ZM1.58334 32.4709C1.53655 33.198 1.65794 33.926 1.93833 34.6001C2.17815 35.0312 2.53209 35.39 2.96244 35.6383L2.99293 35.6582C3.11145 35.7359 3.24148 35.8181 3.39855 35.914L3.58496 36.0275L4.1557 36.3679L3.33699 37.6938L2.69836 37.3136L2.58904 37.249C2.40321 37.1355 2.25017 37.0408 2.10748 36.9488C0.581096 35.9356 0.0109315 34.8344 0 32.5406V32.4709H1.58219H1.58334ZM15.1827 14.4296C15.1132 14.4535 15.0453 14.4819 14.9796 14.5147L4.92551 19.7302L4.89502 19.7472H4.88639L4.9025 19.7574L4.92609 19.7694L14.9819 24.9826C15.0474 25.0159 15.1153 25.0443 15.185 25.0677L15.1827 14.4296ZM16.7701 14.4296V25.0717C16.8398 25.0483 16.9077 25.0199 16.9732 24.9866L27.0296 19.7733L27.0601 19.7563H27.0693L27.0532 19.7484L27.0296 19.7353L16.9726 14.5238C16.9072 14.4905 16.8393 14.462 16.7695 14.4387L16.7701 14.4296ZM27.1729 8.6995L18.1469 13.376L27.1729 18.052V8.69496V8.6995ZM4.80066 8.71028V18.0413L13.8002 13.376L4.80066 8.71028ZM16.9726 1.75872C16.6581 1.62509 16.3192 1.55617 15.9767 1.55617C15.6342 1.55617 15.2953 1.62509 14.9808 1.75872L4.92494 6.96969L4.89444 6.98558L4.88524 6.99069L4.90135 6.99976L4.92494 7.01054L14.9814 12.2238C15.2957 12.3583 15.6346 12.4278 15.9773 12.4278C16.3199 12.4278 16.6589 12.3583 16.9732 12.2238L27.0296 7.01054L27.0601 6.99976L27.0693 6.99466L27.0532 6.98558L27.0296 6.97367L16.9726 1.75872ZM28.6578 2.33399L29.2965 2.71298L29.4115 2.76971C29.5962 2.88318 29.7493 2.97849 29.8925 3.06983C31.4206 4.07969 31.9896 5.18315 32.0017 7.47576V7.54554H30.4132C30.4599 6.81827 30.3385 6.09004 30.0582 5.41576C29.8181 4.9848 29.4637 4.62632 29.033 4.37867L29.0025 4.35882C28.8874 4.27996 28.7551 4.19883 28.5968 4.10295L28.411 3.99799L27.8403 3.65759L28.6596 2.33173L28.6578 2.33399Z" fill="#1F6AF8"/>
</svg>
