<svg width="204" height="170" viewBox="0 0 204 170" fill="none" xmlns="http://www.w3.org/2000/svg">
<path opacity="0.1" d="M85.0003 170C131.945 170 170.001 131.944 170.001 84.9999C170.001 38.0555 131.945 -0.000396729 85.0003 -0.000396729C38.0559 -0.000396729 0 38.0555 0 84.9999C0 131.944 38.0559 170 85.0003 170Z" fill="white" fill-opacity="0.3"/>
<path d="M45.3327 33.9997H198.333C199.836 33.9997 201.278 34.5967 202.34 35.6595C203.403 36.7222 204 38.1635 204 39.6664V67.9999C204 69.5028 203.403 70.9441 202.34 72.0068C201.278 73.0695 199.836 73.6666 198.333 73.6666H45.3327C43.8298 73.6666 42.3885 73.0695 41.3258 72.0068C40.263 70.9441 39.666 69.5028 39.666 67.9999V39.6664C39.666 38.1635 40.263 36.7222 41.3258 35.6595C42.3885 34.5967 43.8298 33.9997 45.3327 33.9997V33.9997Z" fill="#1B1A1A"/>
<path opacity="0.4" d="M117.866 43.0665H88.399C86.5213 43.0665 84.999 44.5887 84.999 46.4665C84.999 48.3443 86.5213 49.8665 88.399 49.8665H117.866C119.744 49.8665 121.266 48.3443 121.266 46.4665C121.266 44.5887 119.744 43.0665 117.866 43.0665Z" fill="#949EA7"/>
<path opacity="0.1" d="M138.266 57.7999H88.399C86.5213 57.7999 84.999 59.3221 84.999 61.1999C84.999 63.0777 86.5213 64.5999 88.399 64.5999H138.266C140.144 64.5999 141.666 63.0777 141.666 61.1999C141.666 59.3221 140.144 57.7999 138.266 57.7999Z" fill="#DDE3EE"/>
<path opacity="0.1" d="M75.9332 53.8332C75.9332 44.7573 68.5757 37.3998 59.4998 37.3998C50.4239 37.3998 43.0664 44.7573 43.0664 53.8332C43.0664 62.9091 50.4239 70.2666 59.4998 70.2666C68.5757 70.2666 75.9332 62.9091 75.9332 53.8332Z" fill="#9FA3B4"/>
<path d="M58.4781 59.1531C59.8849 59.1529 61.2513 58.6822 62.3598 57.8158L65.8448 61.3008L66.9656 60.1799L63.4795 56.6938C64.3554 55.5613 64.8219 54.1657 64.803 52.7342C64.7841 51.3027 64.2809 49.9198 63.3755 48.8109C62.47 47.7019 61.2157 46.9324 59.8169 46.6276C58.4181 46.3229 56.9573 46.5008 55.6726 47.1326C54.3879 47.7643 53.355 48.8125 52.7423 50.1064C52.1296 51.4003 51.9732 52.8635 52.2986 54.2577C52.624 55.6518 53.412 56.8947 54.5341 57.7837C55.6563 58.6726 57.0465 59.1553 58.4781 59.1531ZM58.4781 48.0532C59.4195 48.0532 60.3398 48.3324 61.1226 48.8554C61.9054 49.3784 62.5155 50.1219 62.8758 50.9916C63.236 51.8614 63.3303 52.8185 63.1466 53.7419C62.963 54.6652 62.5096 55.5134 61.8439 56.1791C61.1782 56.8448 60.3301 57.2981 59.4067 57.4818C58.4834 57.6654 57.5263 57.5712 56.6565 57.2109C55.7867 56.8506 55.0433 56.2405 54.5203 55.4577C53.9972 54.675 53.7181 53.7547 53.7181 52.8132C53.7181 51.5508 54.2196 50.3401 55.1122 49.4474C56.0049 48.5547 57.2156 48.0532 58.4781 48.0532Z" fill="white"/>
<path d="M181.333 84.9999H28.3327C25.2031 84.9999 22.666 87.537 22.666 90.6666V119C22.666 122.13 25.2031 124.667 28.3327 124.667H181.333C184.463 124.667 187 122.13 187 119V90.6666C187 87.537 184.463 84.9999 181.333 84.9999Z" fill="#1B1A1A"/>
<path opacity="0.4" d="M100.867 94.0667H71.4C69.5222 94.0667 68 95.5889 68 97.4667C68 99.3445 69.5222 100.867 71.4 100.867H100.867C102.745 100.867 104.267 99.3445 104.267 97.4667C104.267 95.5889 102.745 94.0667 100.867 94.0667Z" fill="#949EA7"/>
<path opacity="0.1" d="M121.267 108.8H71.4C69.5222 108.8 68 110.322 68 112.2C68 114.078 69.5222 115.6 71.4 115.6H121.267C123.145 115.6 124.667 114.078 124.667 112.2C124.667 110.322 123.145 108.8 121.267 108.8Z" fill="#DDE3EE"/>
<path opacity="0.1" d="M58.9322 104.833C58.9322 95.7574 51.5747 88.3999 42.4988 88.3999C33.4229 88.3999 26.0654 95.7574 26.0654 104.833C26.0654 113.909 33.4229 121.267 42.4988 121.267C51.5747 121.267 58.9322 113.909 58.9322 104.833Z" fill="#9FA3B4"/>
<path d="M41.4781 110.153C42.8849 110.153 44.2513 109.682 45.3598 108.816L48.8448 112.301L49.9656 111.18L46.4795 107.694C47.3554 106.561 47.8219 105.166 47.803 103.734C47.7841 102.303 47.2809 100.92 46.3755 99.811C45.47 98.7021 44.2157 97.9325 42.8169 97.6278C41.4181 97.323 39.9573 97.501 38.6726 98.1327C37.3879 98.7644 36.355 99.8127 35.7423 101.107C35.1296 102.4 34.9732 103.864 35.2986 105.258C35.624 106.652 36.412 107.895 37.5341 108.784C38.6563 109.673 40.0465 110.156 41.4781 110.153ZM41.4781 99.0533C42.4195 99.0533 43.3398 99.3325 44.1226 99.8556C44.9054 100.379 45.5155 101.122 45.8758 101.992C46.236 102.862 46.3303 103.819 46.1466 104.742C45.963 105.665 45.5096 106.514 44.8439 107.179C44.1782 107.845 43.3301 108.298 42.4067 108.482C41.4834 108.666 40.5263 108.571 39.6565 108.211C38.7867 107.851 38.0433 107.241 37.5203 106.458C36.9972 105.675 36.7181 104.755 36.7181 103.813C36.7181 102.551 37.2196 101.34 38.1122 100.448C39.0049 99.5549 40.2156 99.0533 41.4781 99.0533Z" fill="white"/>
</svg>
