<svg width="24" height="24" viewBox="0 0 24 24" fill="none" xmlns="http://www.w3.org/2000/svg">
<path d="M5.625 24H18.375C18.9717 24 19.544 23.7629 19.966 23.341C20.3879 22.919 20.625 22.3467 20.625 21.75V3.75C20.625 3.15326 20.3879 2.58097 19.966 2.15901C19.544 1.73705 18.9717 1.5 18.375 1.5H16.7438C16.5888 1.06174 16.3019 0.682222 15.9225 0.413624C15.5431 0.145026 15.0898 0.000531139 14.625 0L9.375 0C8.91015 0.000531139 8.45688 0.145026 8.07748 0.413624C7.69809 0.682222 7.4112 1.06174 7.25625 1.5H5.625C5.02826 1.5 4.45597 1.73705 4.03401 2.15901C3.61205 2.58097 3.375 3.15326 3.375 3.75V21.75C3.375 22.3467 3.61205 22.919 4.03401 23.341C4.45597 23.7629 5.02826 24 5.625 24ZM9.375 1.5H14.625C14.8239 1.5 15.0147 1.57902 15.1553 1.71967C15.296 1.86032 15.375 2.05109 15.375 2.25C15.375 2.44891 15.296 2.63968 15.1553 2.78033C15.0147 2.92098 14.8239 3 14.625 3H9.375C9.17609 3 8.98532 2.92098 8.84467 2.78033C8.70402 2.63968 8.625 2.44891 8.625 2.25C8.625 2.05109 8.70402 1.86032 8.84467 1.71967C8.98532 1.57902 9.17609 1.5 9.375 1.5ZM4.875 3.75C4.875 3.55109 4.95402 3.36032 5.09467 3.21967C5.23532 3.07902 5.42609 3 5.625 3H7.25625C7.4112 3.43826 7.69809 3.81778 8.07748 4.08638C8.45688 4.35497 8.91015 4.49947 9.375 4.5H14.625C15.0898 4.49947 15.5431 4.35497 15.9225 4.08638C16.3019 3.81778 16.5888 3.43826 16.7438 3H18.375C18.5739 3 18.7647 3.07902 18.9053 3.21967C19.046 3.36032 19.125 3.55109 19.125 3.75V21.75C19.125 21.9489 19.046 22.1397 18.9053 22.2803C18.7647 22.421 18.5739 22.5 18.375 22.5H5.625C5.42609 22.5 5.23532 22.421 5.09467 22.2803C4.95402 22.1397 4.875 21.9489 4.875 21.75V3.75Z" fill="#31BC79"/>
<path d="M10.1248 17.0138C10.1968 17.0904 10.2841 17.151 10.381 17.1917C10.4779 17.2324 10.5822 17.2523 10.6873 17.25H10.7248C10.8339 17.2443 10.9404 17.2148 11.0369 17.1637C11.1335 17.1125 11.2176 17.0409 11.2836 16.9538L17.2836 9.07877C17.3936 8.92002 17.4382 8.72492 17.408 8.53412C17.3778 8.34332 17.2752 8.17152 17.1214 8.05454C16.9677 7.93755 16.7748 7.88439 16.5828 7.90614C16.3909 7.92788 16.2147 8.02285 16.0911 8.17126L10.6273 15.3413L8.42232 12.9863C8.28606 12.8411 8.09771 12.7559 7.89868 12.7496C7.69966 12.7433 7.50628 12.8163 7.36107 12.9525C7.21586 13.0888 7.13073 13.2771 7.1244 13.4762C7.11807 13.6752 7.19107 13.8686 7.32732 14.0138L10.1248 17.0138Z" fill="#31BC79"/>
</svg>
