<svg width="24" height="24" viewBox="0 0 24 24" fill="none" xmlns="http://www.w3.org/2000/svg">
<g opacity="0.5">
<path d="M18.2535 15.7305L14.25 14.6187H12H9.75L5.7465 15.7309C4.12313 16.1817 3 17.6595 3 19.344V23.25H12H21V19.344C21 17.6595 19.8769 16.1817 18.2535 15.7305Z" fill="#898989"/>
<path d="M6 21H6.75V23.25H6V21Z" fill="#6A6A6A"/>
<path d="M14.2501 14.6187H12.0001H9.75013L9.01025 14.8242C9.11338 16.3853 10.4131 17.625 12.0001 17.625C13.5871 17.625 14.8869 16.3853 14.99 14.8242L14.2501 14.6187Z" fill="#6A6A6A"/>
<path d="M14.25 11.9937H9.75V14.6187L9.75037 14.619C9.75037 14.6209 9.75 14.6228 9.75 14.625C9.75 15.8678 10.7573 16.875 12 16.875C13.2427 16.875 14.25 15.8678 14.25 14.625C14.25 14.6228 14.2496 14.6209 14.2496 14.6187H14.25V11.9937Z" fill="#C8C8C8"/>
<path d="M16.5 5.24365V9.00003C16.5 11.4852 14.4851 13.5 12 13.5C9.51487 13.5 7.5 11.4852 7.5 9.00003V5.24365H16.5Z" fill="#DAD6D3"/>
<path d="M16.5 6.375H16.7599C17.2163 6.375 17.5669 6.77925 17.5024 7.2315L17.3423 8.35012C17.2894 8.7195 16.9729 8.99362 16.5998 8.99362H16.5V6.375Z" fill="#DAD6D3"/>
<path d="M7.49978 6.375H7.23991C6.78354 6.375 6.43291 6.77925 6.49741 7.2315L6.65754 8.35012C6.71041 8.7195 7.02691 8.99362 7.40003 8.99362H7.49978V6.375Z" fill="#DAD6D3"/>
<path d="M16.5 8.99362L15.75 5.99362H12H8.25L7.5 8.99362V4.5C7.5 2.42888 9.17888 0.75 11.25 0.75H13.125C13.9534 0.75 14.625 1.42162 14.625 2.25C15.6604 2.25 16.5 3.08963 16.5 4.125V8.99362Z" fill="#636363"/>
<path d="M19.875 3.75H19.125V1.125H16.5V0.375H19.875V3.75Z" fill="#5D5D5D"/>
<path d="M4.875 3.75H4.125V0.375H7.5V1.125H4.875V3.75Z" fill="#5D5D5D"/>
<path d="M19.875 14.625H16.5V13.875H19.125V11.25H19.875V14.625Z" fill="#5D5D5D"/>
<path d="M7.5 14.625H4.125V11.25H4.875V13.875H7.5V14.625Z" fill="#5D5D5D"/>
<path d="M4.125 7.125H19.875V7.875H4.125V7.125Z" fill="#5D5D5D"/>
<path d="M19.5 23.25C21.5711 23.25 23.25 21.5711 23.25 19.5C23.25 17.4289 21.5711 15.75 19.5 15.75C17.4289 15.75 15.75 17.4289 15.75 19.5C15.75 21.5711 17.4289 23.25 19.5 23.25Z" fill="#878787"/>
<path d="M19.5 22.5C21.1569 22.5 22.5 21.1569 22.5 19.5C22.5 17.8431 21.1569 16.5 19.5 16.5C17.8431 16.5 16.5 17.8431 16.5 19.5C16.5 21.1569 17.8431 22.5 19.5 22.5Z" fill="#C2C2C2"/>
<path d="M19.125 20.9677L17.7349 19.5776L18.2651 19.0474L19.125 19.9072L21.0161 18.0161L21.5464 18.5464L19.125 20.9677Z" fill="#878787"/>
</g>
</svg>
