<svg width="24" height="24" viewBox="0 0 24 24" fill="none" xmlns="http://www.w3.org/2000/svg">
<g opacity="0.5">
<path d="M18.0519 18.5518C18.0256 18.8123 17.9033 19.0536 17.7089 19.229C17.5146 19.4043 17.2619 19.5011 17.0001 19.5005H13.9756V20.6255H17.0001C17.5404 20.6267 18.0619 20.427 18.4631 20.0651C18.8643 19.7032 19.1166 19.2051 19.171 18.6675L19.4398 16.0706L18.3207 15.9548L18.0519 18.5518Z" fill="white"/>
<path d="M15.0902 8.68009L15.5795 4.75796C15.6408 4.26803 15.5694 3.77061 15.3728 3.31768C15.1762 2.86476 14.8616 2.47293 14.4618 2.18314L13.8901 1.76876C13.7112 1.63914 13.5043 1.55345 13.2862 1.5186C13.068 1.48375 12.8447 1.50074 12.6343 1.56817C12.4239 1.63561 12.2324 1.75161 12.0751 1.90679C11.9179 2.06197 11.7993 2.25198 11.7291 2.46145L9.99127 7.65104C9.76845 8.31365 9.32734 8.88103 8.74012 9.26035L8.11609 9.66254V9.32902C8.11567 8.98105 7.97725 8.64745 7.7312 8.4014C7.48515 8.15535 7.15156 8.01694 6.80359 8.01652H3.57178C3.22381 8.01694 2.89021 8.15535 2.64416 8.4014C2.39811 8.64745 2.2597 8.98105 2.25928 9.32902V21.188C2.2597 21.536 2.39811 21.8696 2.64416 22.1156C2.89021 22.3617 3.22381 22.5001 3.57178 22.5005H6.80359C7.15156 22.5001 7.48515 22.3617 7.7312 22.1156C7.97725 21.8696 8.11567 21.536 8.11609 21.188V21.1664L9.25006 21.8402C9.97745 22.2723 10.8078 22.5004 11.6539 22.5005H17C18.0044 22.5027 18.9738 22.1314 19.7197 21.4587C20.4656 20.7861 20.9348 19.8601 21.036 18.8608L21.7238 12.2168C21.77 11.7702 21.7219 11.3189 21.5827 10.8921C21.4434 10.4653 21.2161 10.0725 20.9154 9.73907C20.6148 9.40568 20.2474 9.13914 19.8372 8.95672C19.427 8.7743 18.983 8.68006 18.5341 8.68009H15.0902ZM6.99109 21.188C6.99106 21.2377 6.97129 21.2854 6.93613 21.3206C6.90098 21.3557 6.85331 21.3755 6.80359 21.3755H3.57178C3.52206 21.3755 3.47439 21.3557 3.43923 21.3206C3.40408 21.2854 3.38431 21.2377 3.38428 21.188V9.32902C3.38431 9.27931 3.40408 9.23163 3.43923 9.19648C3.47439 9.16132 3.52206 9.14156 3.57178 9.14152H6.80359C6.85331 9.14156 6.90098 9.16132 6.93613 9.19648C6.97129 9.23163 6.99106 9.27931 6.99109 9.32902V21.188ZM20.0802 10.4926C20.2766 10.7083 20.4249 10.9632 20.5153 11.2405C20.6057 11.5178 20.6362 11.8111 20.6046 12.101L19.9169 18.7448C19.8438 19.4671 19.5047 20.1364 18.9656 20.6226C18.4266 21.1088 17.7259 21.3771 17 21.3755H11.6539C11.0101 21.3754 10.3782 21.2019 9.82463 20.8731L8.11607 19.8577V11.0009L9.34951 10.2061C10.1515 9.68808 10.7538 8.91321 11.0581 8.00828L12.7959 2.8187C12.81 2.77664 12.8338 2.7385 12.8654 2.70735C12.897 2.6762 12.9355 2.65292 12.9777 2.63939C13.02 2.62586 13.0648 2.62246 13.1086 2.62946C13.1524 2.63647 13.1939 2.65369 13.2299 2.67972L13.8015 3.09391C14.0381 3.2656 14.2244 3.49764 14.3408 3.76583C14.4572 4.03401 14.4995 4.32852 14.4633 4.61863L13.8949 9.17301C13.8851 9.25213 13.8921 9.33243 13.9157 9.4086C13.9392 9.48477 13.9787 9.55507 14.0315 9.61484C14.0842 9.6746 14.1491 9.72247 14.2218 9.75527C14.2945 9.78807 14.3733 9.80505 14.453 9.80509H18.5341C18.8258 9.80355 19.1145 9.86406 19.3811 9.9826C19.6476 10.1011 19.886 10.275 20.0802 10.4927V10.4926Z" fill="white"/>
</g>
</svg>
