<svg width="24" height="28" viewBox="0 0 24 28" fill="none" xmlns="http://www.w3.org/2000/svg">
<path d="M11.9719 0.666656C15.1287 0.666656 17.9183 2.6161 18.948 5.50382C19.0564 5.79537 19.0293 6.11343 18.8938 6.39173C18.7583 6.67004 18.5158 6.88208 18.2164 6.97617C17.6067 7.18688 16.9293 6.87015 16.699 6.26053C16.008 4.29784 14.1125 2.98584 11.999 2.98584C9.23372 2.98584 6.99957 5.16058 6.98467 7.823V9.61209L6.96841 9.61474H17.6419C20.7852 9.61474 23.3337 12.1075 23.3337 15.1821V21.766C23.3337 24.8405 20.7852 27.3333 17.6419 27.3333H6.35737C3.21547 27.3333 0.666992 24.8405 0.666992 21.766V15.1821C0.666992 12.6535 2.4012 10.5424 4.76135 9.86389L4.61368 9.88111V7.84951C4.64077 3.88834 7.93442 0.666656 11.9719 0.666656ZM11.9936 15.8434C11.3432 15.8434 10.8148 16.3603 10.8148 16.9964V19.9384C10.8148 20.5878 11.3432 21.1047 11.9936 21.1047C12.6574 21.1047 13.1858 20.5878 13.1858 19.9384V16.9964C13.1858 16.3603 12.6574 15.8434 11.9936 15.8434Z" fill="white"/>
</svg>
