<svg width="16" height="16" viewBox="0 0 16 16" fill="none" xmlns="http://www.w3.org/2000/svg">
<g clip-path="url(#clip0_58_3782)">
<path d="M15.9993 7.99907C15.9993 7.43925 15.8285 6.89277 15.5097 6.43263C15.1908 5.9725 14.7391 5.62064 14.2149 5.42407C14.4462 4.91456 14.5165 4.34665 14.4165 3.79615C14.3165 3.24565 14.0509 2.73874 13.6553 2.34311C13.2596 1.94747 12.7527 1.68193 12.2022 1.58193C11.6517 1.48193 11.0838 1.55223 10.5743 1.78344C10.3778 1.25922 10.0259 0.80747 9.56581 0.488561C9.10567 0.169652 8.55916 -0.0012207 7.99931 -0.0012207C7.43947 -0.0012207 6.89295 0.169652 6.43282 0.488561C5.97268 0.80747 5.62084 1.25922 5.42431 1.78344C4.91481 1.55223 4.3469 1.48193 3.79639 1.58193C3.24589 1.68193 2.73899 1.94747 2.34335 2.34311C1.94772 2.73874 1.68217 3.24565 1.58217 3.79615C1.48217 4.34665 1.55247 4.91456 1.78369 5.42407C1.25947 5.62059 0.807714 5.97243 0.488805 6.43257C0.169896 6.89271 -0.000976562 7.43922 -0.000976562 7.99907C-0.000976563 8.55892 0.169896 9.10543 0.488805 9.56556C0.807714 10.0257 1.25947 10.3775 1.78369 10.5741C1.55247 11.0836 1.48217 11.6515 1.58217 12.202C1.68217 12.7525 1.94772 13.2594 2.34335 13.655C2.73899 14.0507 3.24589 14.3162 3.79639 14.4162C4.3469 14.5162 4.91481 14.4459 5.42431 14.2147C5.62084 14.7389 5.97268 15.1907 6.43282 15.5096C6.89295 15.8285 7.43947 15.9994 7.99931 15.9994C8.55916 15.9994 9.10567 15.8285 9.56581 15.5096C10.0259 15.1907 10.3778 14.7389 10.5743 14.2147C11.0838 14.4459 11.6517 14.5162 12.2022 14.4162C12.7527 14.3162 13.2596 14.0507 13.6553 13.655C14.0509 13.2594 14.3165 12.7525 14.4165 12.202C14.5165 11.6515 14.4462 11.0836 14.2149 10.5741C14.7391 10.3775 15.1908 10.0256 15.5097 9.5655C15.8285 9.10537 15.9993 8.55888 15.9993 7.99907ZM11.4743 6.61626L7.38056 10.6788C7.31586 10.7429 7.22833 10.7788 7.13721 10.7784C7.04609 10.778 6.95883 10.7415 6.89463 10.6769L4.52837 8.29157C4.49656 8.25952 4.47137 8.22152 4.45425 8.17974C4.43712 8.13796 4.4284 8.09321 4.42857 8.04805C4.42875 8.0029 4.43782 7.95822 4.45526 7.91657C4.47271 7.87492 4.49819 7.83712 4.53025 7.80532L5.34306 6.99907C5.37511 6.96725 5.41311 6.94206 5.45489 6.92494C5.49667 6.90782 5.54142 6.89909 5.58658 6.89927C5.63173 6.89944 5.67641 6.90851 5.71806 6.92596C5.75971 6.9434 5.79751 6.96888 5.82931 7.00094L7.1465 8.32876L10.184 5.31563C10.2487 5.25147 10.3362 5.21563 10.4274 5.21598C10.5185 5.21634 10.6057 5.25285 10.6699 5.31751L11.4768 6.13001C11.5086 6.16209 11.5337 6.20012 11.5508 6.24193C11.5679 6.28373 11.5765 6.32849 11.5763 6.37365C11.5761 6.4188 11.5669 6.46347 11.5494 6.5051C11.5319 6.54673 11.5064 6.5845 11.4743 6.61626Z" fill="#0CACDE"/>
<path d="M11.4749 6.65748L7.38119 10.72C7.31649 10.7841 7.22895 10.82 7.13783 10.8196C7.04672 10.8193 6.95946 10.7828 6.89525 10.7181L4.529 8.33279C4.49719 8.30074 4.472 8.26274 4.45488 8.22096C4.43775 8.17918 4.42903 8.13443 4.4292 8.08927C4.42938 8.04412 4.43845 7.99944 4.45589 7.95779C4.47334 7.91614 4.49882 7.87834 4.53088 7.84654L5.34369 7.04029C5.37574 7.00847 5.41374 6.98328 5.45552 6.96616C5.4973 6.94904 5.54205 6.94031 5.58721 6.94049C5.63236 6.94066 5.67704 6.94973 5.71869 6.96717C5.76034 6.98462 5.79814 7.0101 5.82994 7.04216L7.14713 8.36997L10.1846 5.35685C10.2493 5.29269 10.3369 5.25685 10.428 5.2572C10.5191 5.25756 10.6064 5.29407 10.6706 5.35873L11.4774 6.17123C11.5093 6.20327 11.5344 6.24127 11.5516 6.28305C11.5687 6.32484 11.5774 6.36958 11.5772 6.41474C11.5771 6.45989 11.568 6.50457 11.5506 6.54622C11.5331 6.58787 11.5076 6.62568 11.4756 6.65748H11.4749Z" fill="white"/>
</g>
<defs>
<clipPath id="clip0_58_3782">
<rect width="16" height="16" fill="white"/>
</clipPath>
</defs>
</svg>
